<svg width="126" height="83" viewBox="0 0 126 83" fill="none" xmlns="http://www.w3.org/2000/svg">
<g clip-path="url(#clip0_107_233)">
<path d="M102.237 0H3.55263C1.59057 0 0 1.58354 0 3.53693V70.9744C0 72.9278 1.59057 74.5114 3.55263 74.5114H102.237C104.199 74.5114 105.789 72.9278 105.789 70.9744V3.53693C105.789 1.58354 104.199 0 102.237 0Z" fill="#F2A070"/>
<path d="M122.896 37.0985H66.2624C64.548 37.0985 63.1582 38.4822 63.1582 40.189V79.9095C63.1582 81.6164 64.548 83 66.2624 83H122.896C124.611 83 126 81.6164 126 79.9095V40.189C126 38.4822 124.611 37.0985 122.896 37.0985Z" fill="#7D5239"/>
<path d="M3.47368 0H102.24C103.181 0 104.084 0.372309 104.75 1.03502C105.416 1.69774 105.789 2.59657 105.789 3.53379V11.3182H0V3.45833C0 2.54113 0.365976 1.66149 1.01742 1.01292C1.66886 0.364359 2.55241 0 3.47368 0Z" fill="#7D5239"/>
<path d="M55.5791 27.0379H11.0528C9.13432 27.0379 7.5791 28.5863 7.5791 30.4962C7.5791 32.4062 9.13432 33.9546 11.0528 33.9546H55.5791C57.4976 33.9546 59.0528 32.4062 59.0528 30.4962C59.0528 28.5863 57.4976 27.0379 55.5791 27.0379Z" fill="#7D5239"/>
<path d="M40.737 41.8144H11.0528C9.13432 41.8144 7.5791 43.3627 7.5791 45.2727C7.5791 47.1827 9.13432 48.7311 11.0528 48.7311H40.737C42.6555 48.7311 44.2107 47.1827 44.2107 45.2727C44.2107 43.3627 42.6555 41.8144 40.737 41.8144Z" fill="#7D5239"/>
<path d="M77.3684 63.822C76.6552 63.8222 75.9593 63.6039 75.3751 63.1968C74.791 62.7896 74.3468 62.2133 74.1029 61.5462C73.8591 60.879 73.8274 60.1533 74.0122 59.4676C74.1969 58.7819 74.5892 58.1694 75.1357 57.7133L80.9778 52.8402C81.3254 52.5338 81.7311 52.2999 82.171 52.1523C82.6109 52.0047 83.076 51.9463 83.539 51.9807C84.0019 52.0151 84.4532 52.1415 84.8662 52.3525C85.2792 52.5634 85.6456 52.8547 85.9436 53.209C86.2417 53.5633 86.4654 53.9735 86.6015 54.4154C86.7376 54.8572 86.7834 55.3217 86.7362 55.7815C86.6889 56.2412 86.5496 56.6869 86.3264 57.0922C86.1032 57.4974 85.8007 57.854 85.4368 58.1409L79.5947 63.014C78.9717 63.5367 78.183 63.8229 77.3684 63.822Z" fill="#F2A070"/>
<path d="M82.892 68.0663C82.1841 68.0621 81.4943 67.8428 80.9151 67.4375L75.2309 63.5076C74.819 63.2656 74.4618 62.9416 74.1815 62.5558C73.9013 62.1701 73.704 61.7308 73.6022 61.2656C73.5003 60.8004 73.496 60.3193 73.5896 59.8524C73.6832 59.3855 73.8726 58.9429 74.1459 58.5522C74.4193 58.1615 74.7707 57.8313 75.1783 57.5821C75.5858 57.333 76.0406 57.1703 76.5142 57.1042C76.9878 57.0381 77.47 57.0701 77.9306 57.1982C78.3912 57.3263 78.8202 57.5477 79.1909 57.8485L84.8751 61.7784C85.4782 62.2003 85.9308 62.8022 86.1676 63.4972C86.4043 64.1921 86.4129 64.9439 86.1921 65.644C85.9713 66.3441 85.5325 66.9562 84.9393 67.3916C84.346 67.827 83.629 68.0633 82.892 68.0663Z" fill="#F2A070"/>
<path d="M113.684 63.822C112.869 63.8229 112.08 63.5367 111.457 63.014L105.615 58.1409C104.938 57.5438 104.521 56.7071 104.454 55.8089C104.387 54.9106 104.674 54.0217 105.255 53.3311C105.836 52.6406 106.664 52.2029 107.564 52.1112C108.464 52.0195 109.365 52.2811 110.074 52.8402L115.916 57.7133C116.463 58.1694 116.855 58.7819 117.04 59.4676C117.225 60.1533 117.193 60.879 116.949 61.5462C116.705 62.2133 116.261 62.7896 115.677 63.1968C115.093 63.6039 114.397 63.8222 113.684 63.822Z" fill="#F2A070"/>
<path d="M108.161 68.0663C107.424 68.0633 106.707 67.827 106.114 67.3916C105.52 66.9562 105.082 66.3441 104.861 65.644C104.64 64.9439 104.649 64.1921 104.885 63.4972C105.122 62.8022 105.575 62.2003 106.178 61.7784L111.862 57.8485C112.233 57.5477 112.662 57.3263 113.122 57.1982C113.583 57.0701 114.065 57.0381 114.539 57.1042C115.012 57.1703 115.467 57.333 115.875 57.5821C116.282 57.8313 116.634 58.1615 116.907 58.5522C117.18 58.9429 117.37 59.3855 117.463 59.8524C117.557 60.3193 117.553 60.8004 117.451 61.2656C117.349 61.7308 117.152 62.1701 116.871 62.5558C116.591 62.9416 116.234 63.2656 115.822 63.5076L110.138 67.4375C109.558 67.8428 108.869 68.0621 108.161 68.0663Z" fill="#F2A070"/>
<path d="M93.0003 71.2102C92.4347 71.2109 91.8775 71.074 91.3771 70.8116C90.8768 70.5492 90.4483 70.1691 90.129 69.7043C89.8097 69.2396 89.6092 68.7042 89.545 68.1448C89.4807 67.5854 89.5546 67.0188 89.7603 66.4943L95.1287 52.661C95.4733 51.8236 96.1338 51.154 96.9686 50.796C97.8034 50.4379 98.7459 50.4199 99.5938 50.7457C100.442 51.0716 101.128 51.7153 101.504 52.5389C101.881 53.3625 101.919 54.3002 101.609 55.151L96.2403 68.9843C95.9898 69.6381 95.546 70.2009 94.9675 70.5983C94.3891 70.9957 93.7031 71.2091 93.0003 71.2102Z" fill="#F2A070"/>
</g>
<defs>
<clipPath id="clip0_107_233">
<rect width="126" height="83" fill="white"/>
</clipPath>
</defs>
</svg>
