<svg width="118" height="87" viewBox="0 0 118 87" fill="none" xmlns="http://www.w3.org/2000/svg">
<g clip-path="url(#clip0_107_246)">
<path d="M61.2592 10.3894C54.0586 10.3894 47.0198 12.5323 41.0327 16.5472C35.0457 20.562 30.3794 26.2684 27.6238 32.9449C24.8683 39.6213 24.1473 46.9678 25.5521 54.0555C26.9569 61.1431 30.4243 67.6536 35.5158 72.7635C40.6074 77.8734 47.0944 81.3533 54.1566 82.7631C61.2188 84.1729 68.539 83.4494 75.1914 80.6839C81.8438 77.9184 87.5298 73.2353 91.5302 67.2267C95.5306 61.218 97.6658 54.1538 97.6658 46.9273C97.6658 37.2368 93.8301 27.9433 87.0026 21.0911C80.175 14.2389 70.9148 10.3894 61.2592 10.3894ZM61.3117 70.6546C56.6254 70.6546 52.0443 69.2599 48.1477 66.6469C44.2512 64.0339 41.2142 60.32 39.4208 55.9748C37.6274 51.6296 37.1582 46.8482 38.0724 42.2353C38.9867 37.6225 41.2434 33.3853 44.5571 30.0596C47.8709 26.7339 52.0928 24.4691 56.6891 23.5515C61.2854 22.6339 66.0496 23.1049 70.3792 24.9047C74.7089 26.7046 78.4094 29.7525 81.013 33.6631C83.6166 37.5737 85.0063 42.1713 85.0063 46.8746C85.0063 53.1814 82.5099 59.23 78.0663 63.6896C73.6227 68.1492 67.5959 70.6546 61.3117 70.6546Z" fill="#3C2A68"/>
<path d="M5.36494 87C4.21394 87.0011 3.09318 86.6303 2.16854 85.9423C1.2439 85.2544 0.564521 84.286 0.230954 83.1805C-0.102613 82.0749 -0.0726374 80.8909 0.316444 79.8038C0.705526 78.7166 1.43304 77.7841 2.39129 77.1442L29.4483 59.0735C30.0338 58.6721 30.6929 58.3913 31.3874 58.2474C32.0819 58.1035 32.7979 58.0994 33.494 58.2353C34.19 58.3711 34.8523 58.6443 35.4424 59.0389C36.0325 59.4335 36.5387 59.9418 36.9317 60.5342C37.3247 61.1266 37.5966 61.7914 37.7316 62.49C37.8667 63.1886 37.8623 63.9072 37.7186 64.6041C37.575 65.3011 37.2949 65.9624 36.8947 66.5499C36.4945 67.1374 35.9821 67.6393 35.3872 68.0266L8.32807 86.0994C7.45086 86.6872 6.41966 87.0006 5.36494 87Z" fill="#3C2A68"/>
<path d="M113.755 0H64.2431C63.1172 0 62.0375 0.448858 61.2414 1.24783C60.4453 2.0468 59.998 3.13045 59.998 4.26036V49.3527L70.5056 40.9164H112.536C113.983 40.9164 115.371 40.3401 116.396 39.314C117.42 38.2879 117.997 36.8958 118 35.4433V4.26247C118 3.70282 117.891 3.14859 117.677 2.63145C117.464 2.11432 117.151 1.64441 116.757 1.24858C116.363 0.852742 115.895 0.538738 115.38 0.324503C114.865 0.110267 114.312 -6.85786e-08 113.755 0Z" fill="#DBCEF6"/>
<path d="M90.321 20.1418C90.321 22.177 89.7197 24.1666 88.593 25.8588C87.4664 27.551 85.865 28.8699 83.9915 29.6488C82.118 30.4276 80.0564 30.6314 78.0674 30.2343C76.0785 29.8373 74.2515 28.8572 72.8176 27.4181C71.3836 25.979 70.4071 24.1455 70.0115 22.1493C69.6158 20.1532 69.8189 18.0842 70.5949 16.2039C71.371 14.3236 72.6852 12.7165 74.3713 11.5858C76.0575 10.4551 78.0398 9.85156 80.0677 9.85156" fill="#3C2A68"/>
<path d="M90.3205 19.9309C90.3207 18.5795 90.0557 17.2412 89.5405 15.9926C89.0254 14.744 88.2701 13.6095 87.318 12.654C86.3658 11.6984 85.2354 10.9404 83.9913 10.4234C82.7472 9.90632 81.4137 9.64035 80.0672 9.64063L79.752 20.2472L90.3205 19.9309Z" fill="#A17EF6"/>
<path d="M109.224 15.0062H104.13C103.74 15.0062 103.366 14.8506 103.09 14.5738C102.814 14.2969 102.659 13.9214 102.659 13.5298C102.659 13.1383 102.814 12.7628 103.09 12.4859C103.366 12.209 103.74 12.0535 104.13 12.0535H109.224C109.614 12.0535 109.989 12.209 110.265 12.4859C110.54 12.7628 110.695 13.1383 110.695 13.5298C110.695 13.9214 110.54 14.2969 110.265 14.5738C109.989 14.8506 109.614 15.0062 109.224 15.0062Z" fill="#3C2A68"/>
<path d="M109.224 19.8571H101.188C100.798 19.8571 100.424 19.7015 100.148 19.4247C99.8718 19.1478 99.7168 18.7723 99.7168 18.3807C99.7168 17.9892 99.8718 17.6136 100.148 17.3368C100.424 17.0599 100.798 16.9044 101.188 16.9044H109.224C109.614 16.9044 109.988 17.0599 110.264 17.3368C110.54 17.6136 110.695 17.9892 110.695 18.3807C110.695 18.7723 110.54 19.1478 110.264 19.4247C109.988 19.7015 109.614 19.8571 109.224 19.8571Z" fill="#3C2A68"/>
<path d="M109.224 24.708H98.9261C98.536 24.708 98.1618 24.5524 97.8859 24.2756C97.6101 23.9987 97.4551 23.6232 97.4551 23.2316C97.4551 22.8401 97.6101 22.4645 97.8859 22.1877C98.1618 21.9108 98.536 21.7552 98.9261 21.7552H109.224C109.614 21.7552 109.988 21.9108 110.264 22.1877C110.54 22.4645 110.695 22.8401 110.695 23.2316C110.695 23.6232 110.54 23.9987 110.264 24.2756C109.988 24.5524 109.614 24.708 109.224 24.708Z" fill="#3C2A68"/>
</g>
<defs>
<clipPath id="clip0_107_246">
<rect width="118" height="87" fill="white"/>
</clipPath>
</defs>
</svg>
