<svg width="114" height="113" viewBox="0 0 114 113" fill="none" xmlns="http://www.w3.org/2000/svg">
<g clip-path="url(#clip0_107_217)">
<path d="M16.5244 0H3.49507C1.5648 0 0 1.57606 0 3.52022V16.6433C0 18.5875 1.5648 20.1636 3.49507 20.1636H16.5244C18.4547 20.1636 20.0195 18.5875 20.0195 16.6433V3.52022C20.0195 1.57606 18.4547 0 16.5244 0Z" fill="#1D4E33"/>
<path d="M110.505 0H97.4755C95.5453 0 93.9805 1.57606 93.9805 3.52022V16.6433C93.9805 18.5875 95.5453 20.1636 97.4755 20.1636H110.505C112.435 20.1636 114 18.5875 114 16.6433V3.52022C114 1.57606 112.435 0 110.505 0Z" fill="#1D4E33"/>
<path d="M57 20.1636C62.5282 20.1636 67.0097 15.6498 67.0097 10.0818C67.0097 4.51377 62.5282 0 57 0C51.4718 0 46.9902 4.51377 46.9902 10.0818C46.9902 15.6498 51.4718 20.1636 57 20.1636Z" fill="#1D4E33"/>
<path d="M16.9609 67.4919C22.4892 67.4919 26.9707 62.9782 26.9707 57.4102C26.9707 51.8421 22.4892 47.3284 16.9609 47.3284C11.4327 47.3284 6.95117 51.8421 6.95117 57.4102C6.95117 62.9782 11.4327 67.4919 16.9609 67.4919Z" fill="#1D4E33"/>
<path d="M97.0391 67.4919C102.567 67.4919 107.049 62.9782 107.049 57.4102C107.049 51.8421 102.567 47.3284 97.0391 47.3284C91.5108 47.3284 87.0293 51.8421 87.0293 57.4102C87.0293 62.9782 91.5108 67.4919 97.0391 67.4919Z" fill="#1D4E33"/>
<path d="M97.039 6.16107H16.9609V12.8823H97.039V6.16107Z" fill="#1D4E33"/>
<path d="M19.2911 57.4102C19.0364 55.6012 18.9082 53.7763 18.9074 51.9492C18.9074 41.7366 22.9354 31.9422 30.1052 24.7208C37.2751 17.4994 46.9995 13.4424 57.1391 13.4424C67.2788 13.4424 77.0032 17.4994 84.173 24.7208C91.3429 31.9422 95.3708 41.7366 95.3708 51.9492C95.3701 53.7763 95.2418 55.6012 94.9871 57.4102H102.836C103.049 55.5977 103.155 53.7743 103.156 51.9492C103.156 39.6569 98.308 27.8681 89.6781 19.1761C81.0483 10.4841 69.3436 5.60101 57.1391 5.60101C44.9347 5.60101 33.23 10.4841 24.6002 19.1761C15.9703 27.8681 11.1221 39.6569 11.1221 51.9492C11.123 53.7743 11.2298 55.5977 11.4418 57.4102H19.2911Z" fill="#1D4E33"/>
<path d="M87.0292 69.836L59.7805 29.1252L60.3199 60.5944C62.5349 61.3424 64.4204 62.8472 65.6497 64.8481C66.879 66.849 67.3748 69.2199 67.051 71.5503C66.7273 73.8806 65.6045 76.0234 63.8771 77.6077C62.1497 79.1919 59.9265 80.1176 57.5927 80.2245C55.2589 80.3315 52.9615 79.6128 51.0984 78.1931C49.2354 76.7734 47.924 74.7421 47.3915 72.451C46.8591 70.1599 47.139 67.7534 48.1829 65.6483C49.2268 63.5433 50.9688 61.8723 53.1073 60.9248V29.2792L26.9707 69.4775C26.9707 69.4775 40.7341 80.7943 40.039 96.1971C40.039 96.1971 61.7268 95.777 74.1 96.1971C74.1 96.1971 72.7097 77.9938 87.0292 69.836Z" fill="#47C274"/>
<path d="M56.7218 73.9331C58.8717 73.9331 60.6145 72.1777 60.6145 70.0124C60.6145 67.847 58.8717 66.0917 56.7218 66.0917C54.5719 66.0917 52.8291 67.847 52.8291 70.0124C52.8291 72.1777 54.5719 73.9331 56.7218 73.9331Z" fill="#47C274"/>
<path d="M36.5658 113H77.6003C77.6003 113 80.9953 110.872 79.605 108.911C78.2148 106.951 77.3806 100.51 68.205 99.3896C62.2826 98.667 53.5797 99.1795 48.1549 99.636C43.8894 99.9654 39.8675 101.768 36.7688 104.739C34.0801 107.343 32.4257 110.564 36.5658 113Z" fill="#1D4E33"/>
</g>
<defs>
<clipPath id="clip0_107_217">
<rect width="114" height="113" fill="white"/>
</clipPath>
</defs>
</svg>
