<svg width="39" height="39" viewBox="0 0 39 39" fill="none" xmlns="http://www.w3.org/2000/svg">
<g clip-path="url(#clip0_122_107)">
<path d="M39 9.75C39 8.03644 37.8337 6.5715 36.1652 6.18638L20.3056 2.52647C20.0399 2.46675 19.7693 2.4375 19.5 2.4375C19.2307 2.4375 18.9601 2.46675 18.6773 2.53012L2.83481 6.18638C1.16513 6.5715 0 8.03644 0 9.75C0 11.4636 1.16634 12.9285 2.83359 13.3136L6.09375 14.0656V24.375C6.09375 27.6096 9.79631 30.4688 19.5 30.4688C29.2037 30.4688 32.9062 27.6096 32.9062 24.375V14.0656L36.1652 13.3136C37.8337 12.9285 39 11.4636 39 9.75ZM30.4688 24.375C30.4688 25.7217 26.8125 28.0312 19.5 28.0312C12.1875 28.0312 8.53125 25.7217 8.53125 24.375V14.6287L18.6932 16.9735C18.9589 17.0332 19.2307 17.0625 19.5 17.0625C19.7693 17.0625 20.0411 17.0332 20.3214 16.9699L30.4688 14.6287V24.375ZM19.7742 14.5945C19.6828 14.614 19.5914 14.625 19.5 14.625C19.4086 14.625 19.316 14.614 19.2258 14.5945L3.38203 10.9383C2.82872 10.8103 2.4375 10.3179 2.4375 9.75C2.4375 9.18206 2.82872 8.68969 3.38203 8.56172L19.2258 4.90547C19.316 4.88597 19.4074 4.875 19.5 4.875C19.5926 4.875 19.684 4.88597 19.7742 4.90547L35.618 8.56172C36.1701 8.68969 36.5625 9.18206 36.5625 9.75C36.5625 10.3179 36.1701 10.8103 35.618 10.9383L19.7742 14.5945ZM35.3438 15.8438C35.3438 15.1698 35.8885 14.625 36.5625 14.625C37.2352 14.625 37.7812 15.1698 37.7812 15.8438V26.8125C37.7812 27.4865 37.2352 28.0312 36.5625 28.0312C35.8885 28.0312 35.3438 27.4865 35.3438 26.8125V15.8438ZM36.5625 29.25C37.908 29.25 39 32.7795 39 34.125C39 35.4705 37.908 36.5625 36.5625 36.5625C35.2158 36.5625 34.125 35.4705 34.125 34.125C34.125 32.7795 35.2158 29.25 36.5625 29.25Z" fill="#47C274"/>
</g>
<defs>
<clipPath id="clip0_122_107">
<rect width="39" height="39" fill="white"/>
</clipPath>
</defs>
</svg>
