<svg width="42" height="42" viewBox="0 0 42 42" fill="none" xmlns="http://www.w3.org/2000/svg">
<path d="M23.625 25.0811V18.375C23.625 14.0248 20.1002 10.5 15.75 10.5C11.3998 10.5 7.875 14.0248 7.875 18.375V25.0811C3.18642 26.9012 0 30.249 0 34.125C0 34.589 0 39.375 0 39.375C0 40.826 1.17403 42 2.625 42H28.875C30.326 42 31.5 40.826 31.5 39.375C31.5 39.375 31.5 34.589 31.5 34.125C31.5 30.249 28.3136 26.9012 23.625 25.0811ZM13.125 18.375C13.125 16.924 14.299 15.75 15.75 15.75C17.201 15.75 18.375 16.924 18.375 18.375V26.25C18.375 27.701 17.201 28.875 15.75 28.875C14.299 28.875 13.125 27.701 13.125 26.25V18.375ZM26.25 36.75H5.25V34.125C5.25 32.5305 6.70351 31.1181 8.94912 30.1542C10.3103 32.5177 12.8302 34.125 15.75 34.125C18.6698 34.125 21.1897 32.5177 22.5509 30.1542C24.7965 31.1181 26.25 32.5305 26.25 34.125V36.75ZM34.125 14.5811V7.875C34.125 3.5248 30.6002 0 26.25 0C21.8998 0 18.375 3.5248 18.375 7.875V8.24668C20.4488 8.78243 22.2561 9.93087 23.625 11.4972V7.875C23.625 6.42403 24.799 5.25 26.25 5.25C27.701 5.25 28.875 6.42403 28.875 7.875V15.75C28.875 17.201 27.701 18.375 26.25 18.375V23.625C29.1698 23.625 31.6897 22.0177 33.0509 19.6542C35.2965 20.6181 36.75 22.0305 36.75 23.625V26.25H27.1703C29.8133 27.6112 31.8435 29.4082 32.9996 31.5H39.375C40.826 31.5 42 30.326 42 28.875C42 28.875 42 24.089 42 23.625C42 19.749 38.8136 16.4012 34.125 14.5811Z" fill="#47C274"/>
</svg>
